PathFileType	4	(X/Y/Z)	Patient4_TMGait_0pt2_03_left_23.trc.trc
DataRate	CameraRate	NumFrames	NumMarkers	Units	OrigDataRate	OrigDataStartFrame	OrigNumFrames
48.780487804878	48.780487804878	4	33	mm	48.780487804878	89	       141
Frame#	Time	Sacral			L.Shoulder			Chest			R.Shoulder			Neck			R.ASIS			L.ASIS			R.Thigh.Superior			R.Thigh.Lateral			R.Thigh.Inferior			R.Patella			L.Thigh.Superior			L.Thigh.Lateral			L.Thigh.Inferior			L.Patella			L.Shank.Superior			L.Shank.Lateral			L.Shank.Inferior			R.Shank.Superior			R.Shank.Lateral			R.Shank.Inferior			R.Heel			R.Midfoot.Superior			R.Midfoot.Lateral			R.Toe			L.Heel			L.Midfoot.Lateral			L.Midfoot.Superior			L.Toe			L.Elbow			L.Wrist			R.Elbow			R.Wrist			
		X1	Y1	Z1	X2	Y2	Z2	X3	Y3	Z3	X4	Y4	Z4	X5	Y5	Z5	X6	Y6	Z6	X7	Y7	Z7	X8	Y8	Z8	X9	Y9	Z9	X10	Y10	Z10	X11	Y11	Z11	X12	Y12	Z12	X13	Y13	Z13	X14	Y14	Z14	X15	Y15	Z15	X16	Y16	Z16	X17	Y17	Z17	X18	Y18	Z18	X19	Y19	Z19	X20	Y20	Z20	X21	Y21	Z21	X22	Y22	Z22	X23	Y23	Z23	X24	Y24	Z24	X25	Y25	Z25	X26	Y26	Z26	X27	Y27	Z27	X28	Y28	Z28	X29	Y29	Z29	X30	Y30	Z30	X31	Y31	Z31	X32	Y32	Z32	X33	Y33	Z33	

89	49.904000000000	861.829632399209	1014.074111163142	498.254193977674	1092.029174998442	1437.774898354645	366.777931753599	1146.104580382654	1366.969450266248	547.475444776363	1022.973464300003	1445.167049308163	692.775515903875	1026.307333361455	1498.476655940018	514.550672225156	1064.146541147703	942.762827827877	658.393591245343	1099.979443131683	965.235609633624	387.305580187564	1117.786667658348	745.819699262663	623.964938680229	1035.673877725956	632.752163823142	674.997560636508	1120.952051046497	584.038908841905	600.366726043197	1125.446195723176	497.176431723125	605.550966143439	1101.270475295044	735.130499536304	398.127476766174	987.938037421204	632.400805001383	310.991282997514	1060.333803056966	544.595741248558	375.939992230384	1049.720512094572	474.219179176284	375.398993147923	1007.378539246632	412.546717132631	359.856062786374	897.840375591342	322.761766894886	297.296850335843	926.574906442849	195.960847006177	354.885286912461	1098.327452751937	407.551600626729	611.407864105564	1026.945368147827	303.159873268045	672.946949521606	1071.955395462584	208.265997932602	610.514963151444	940.857058814011	43.547292801716	580.549191974832	1111.383459733790	97.327100688531	618.367043032990	1023.925357328861	37.165338834705	656.108421612414	1231.782992135107	46.909743169993	646.499279461789	774.291855966521	55.246080025807	381.597781160609	849.841689145039	44.374892433737	303.726547292764	937.989406331585	98.448372337101	331.761423820774	1061.161923790878	38.032188289448	305.099220902570	1231.996108622632	1146.259560316854	211.209454764240	1482.020721495093	1193.512052367299	249.354283975285	861.193704775736	1132.464658500204	773.638294209100	869.590312986458	869.614289891951	779.581456268286	
90	49.924500000000	861.433911162135	1014.755379483699	505.470398339712	1090.404287138527	1437.975174689999	370.452548960104	1146.764260685344	1367.416211943475	550.552226578013	1025.580632256851	1445.938861423311	697.265676125931	1026.492271420544	1498.989764239279	518.685711822676	1065.470123279176	942.963103092065	663.049017777797	1097.967418526756	965.799918559116	391.738864980042	1117.187430008349	745.200693642873	628.047586168290	1034.113852264608	632.642384928408	678.902781372810	1118.626220953205	583.538126983128	603.760604204771	1122.351703180869	496.720914766659	608.498431959539	1102.536153654808	736.787572545742	401.286170967361	990.334034075617	632.573766758281	314.621633075540	1065.767837060936	545.391639553988	378.038052039755	1056.064290458621	473.745810723730	376.579951367157	1011.693382293492	412.552058206491	361.444897328170	899.675450966797	325.661452171708	299.033439860512	926.636198420667	197.779005078817	355.219560140976	1095.015336730815	407.330526865567	613.843344724470	1023.364860025304	302.752767149931	674.710135733839	1068.222228645996	208.170168853245	611.594684512488	936.775572279659	43.527154820789	580.622160224553	1107.342763292816	97.283956074740	618.585049648608	1019.827829184573	37.134202631321	656.162163014187	1227.688929805689	46.765525299445	646.628705267524	771.477519816673	60.321649515746	381.329219431749	846.644662828021	47.225914484686	303.604964436347	936.043789464510	99.295752418402	331.383448335904	1057.376916978283	37.139650961915	305.054224772057	1224.317302944761	1141.537182693585	216.521366616865	1477.235688427958	1175.246278080154	252.703954071082	864.866111273030	1133.283888364442	781.741461597743	873.718824430224	870.532424342786	788.540879161265	
91	49.945000000000	860.783247444161	1015.274115282315	512.677730472231	1088.378620937844	1438.030599850719	374.021925428881	1147.221798112060	1367.618432765119	553.385378714278	1028.259398096264	1446.416986533795	701.695493428273	1026.529905596802	1499.324433794177	522.806960250130	1066.701141687325	942.950269855930	667.362334543430	1095.570762039970	966.266438097851	395.820366273298	1116.620458689950	744.529342557705	631.746950767195	1032.821684789592	632.431792435296	682.587351013281	1116.544024673905	583.011750077457	606.866821613270	1119.571227748594	496.183220023516	611.250023371670	1104.368082383524	738.813921665479	404.220703373343	994.028350382202	632.555115853780	318.100942221591	1072.930775281732	546.461745487340	380.094045598117	1064.284317140852	473.353903957569	377.685593132991	1017.703994324467	412.571157448545	363.045452940849	903.060272520890	329.046515909672	300.738393074555	927.645115936787	200.123408087215	355.608041448135	1091.949364712111	407.009114018982	616.126793335335	1019.986181553678	302.307874868543	676.379982738428	1064.582222932900	208.000535783176	612.599492363567	932.654849581267	43.495836675664	580.687053232992	1103.272761751815	97.235802766526	618.782527611154	1015.690619688461	37.095938967907	656.209695799965	1223.561458560942	46.634627282841	646.744534116737	769.189560186645	66.833090098027	381.060041981386	843.815568981251	51.156416136674	303.494618191065	934.642827336198	100.653769790413	331.067563968414	1053.612838212067	36.171005674463	305.110598675660	1215.249294485826	1136.376770855696	221.616500165146	1470.414266666318	1154.259932386951	255.758474236155	869.214134569460	1133.458083720147	789.937574668965	879.172356106777	870.840214704131	797.589179098725	
92	49.965500000000	859.872203833197	1015.539031224159	519.839322991199	1085.938140950527	1437.888459181914	377.473145579089	1147.438595596904	1367.512896755937	555.956530073381	1030.951586444824	1446.515183228170	706.028773926281	1026.396707356283	1499.421128482058	526.895714223436	1067.842497272041	942.711962154022	671.302781986880	1092.818313859138	966.565533909364	399.509061527898	1116.190604960731	743.823066933386	635.036011769151	1031.977366910099	632.085337505258	686.020410944294	1114.906836064820	582.460437199492	609.644607691492	1117.360763134153	495.526099132487	613.760143859837	1106.789691606856	741.227924927756	406.979104550706	999.129792205148	632.409939758315	321.435507934067	1081.862455699753	547.903911352000	382.182553144824	1074.445395300885	473.167780917548	378.800826771689	1025.506498009682	412.698426551358	364.708098326923	908.139971744878	333.034878837876	302.445103052396	929.691489140247	203.149607815530	356.095447831863	1089.322648123791	406.544621558273	618.209741050386	1016.976232761080	301.815522475749	677.934680749922	1061.117668191434	207.728218274630	613.495658772968	928.507616213429	43.457090641434	580.747835167407	1099.180294955412	97.179537554746	618.950074414126	1011.526462734888	37.052915638549	656.257432396466	1219.415469103038	46.516578964872	646.847046241044	767.563778191486	75.034514261015	380.830930517229	841.469485364281	56.437586014485	303.432715589876	933.870825267289	102.727040673770	330.872581047541	1049.899209917312	35.198368904561	305.301572223731	1204.863209988052	1130.827307271819	226.520143436735	1461.198611930984	1130.617455061640	258.521803264129	874.361414535404	1132.822015277216	798.161347583229	886.139246043425	870.373566977127	806.673009366549	
